# Made in Blockbench 5.0.7
mtllib accessories_long_body.mtl

o mesh
v 0.25 0.5625 -0.125
v 0.25 0.5625 0.125
v 0.25 -0.4375 0.125
v 0.25 -0.4375 -0.125
v -0.25 -0.4375 0.125
v -0.25 0.5625 0.125
v -0.25 0.5625 -0.125
v -0.25 -0.4375 -0.125
vt 0.6666666666666666 0.4
vt 0.5 0.4
vt 0.5 0
vt 0.6666666666666666 0
vt 0.16666666666666666 0
vt 0.16666666666666666 0.4
vt 0 0.4
vt 0 0
vt 0.16666666666666666 0.4
vt 0.5 0.4
vt 0.5 0.5
vt 0.16666666666666666 0.5
vt 0.8333333333333334 0.4
vt 0.8333333333333334 0.5
vt 0.5 0.5
vt 0.5 0.4
vt 0.5 0
vt 0.5 0.4
vt 0.16666666666666666 0.4
vt 0.16666666666666666 0
vt 1 0.4
vt 0.6666666666666666 0.4
vt 0.6666666666666666 0
vt 1 0
vn 1 0 0
vn -1 0 0
vn 0 1 0
vn 0 -1 0
vn 0 0 1
vn 0 0 -1
usemtl m_db72e552-6012-b87a-3ca0-cde5d3b66a1c
f 1/1/1 2/2/1 3/3/1 4/4/1
f 5/5/2 6/6/2 7/7/2 8/8/2
f 6/9/3 2/10/3 1/11/3 7/12/3
f 4/13/4 3/14/4 5/15/4 8/16/4
f 3/17/5 2/18/5 6/19/5 5/20/5
f 7/21/6 1/22/6 4/23/6 8/24/6
o mesh
v 0.275 0.5875000000000001 -0.15
v 0.275 0.5875000000000001 0.15
v 0.275 -0.46250000000000013 0.15
v 0.275 -0.46250000000000013 -0.15
v -0.275 -0.46250000000000013 0.15
v -0.275 0.5875000000000001 0.15
v -0.275 0.5875000000000001 -0.15
v -0.275 -0.46250000000000013 -0.15
vt 0.6666666666666666 0.9
vt 0.5 0.9
vt 0.5 0.5
vt 0.6666666666666666 0.5
vt 0 0.5
vt 0 0.9
vt 0.16666666666666666 0.9
vt 0.16666666666666666 0.5
vt 0.16666666666666666 0.9
vt 0.5 0.9
vt 0.5 1
vt 0.16666666666666666 1
vt 0.8333333333333334 0.9
vt 0.8333333333333334 1
vt 0.5 1
vt 0.5 0.9
vt 0.5 0.5
vt 0.5 0.9
vt 0.16666666666666666 0.9
vt 0.16666666666666666 0.5
vt 1 0.9
vt 0.6666666666666666 0.9
vt 0.6666666666666666 0.5
vt 1 0.5
vn 1 0 0
vn -1 0 0
vn 0 1 0
vn 0 -1 0
vn 0 0 1
vn 0 0 -1
usemtl m_db72e552-6012-b87a-3ca0-cde5d3b66a1c
f 9/25/7 10/26/7 11/27/7 12/28/7
f 13/29/8 14/30/8 15/31/8 16/32/8
f 14/33/9 10/34/9 9/35/9 15/36/9
f 12/37/10 11/38/10 13/39/10 16/40/10
f 11/41/11 10/42/11 14/43/11 13/44/11
f 15/45/12 9/46/12 12/47/12 16/48/12