# Made in Blockbench 5.0.7
mtllib bnuuy_ears.mtl

o cube
v -0.25 0 0
v -0.25 0 -0.0625
v -0.25 -0.0625 0
v -0.25 -0.0625 -0.0625
v -0.3125 0 -0.0625
v -0.3125 0 0
v -0.3125 -0.0625 -0.0625
v -0.3125 -0.0625 0
vt 0.08333333333333333 0.5652173913043479
vt 0.16666666666666666 0.5652173913043479
vt 0.16666666666666666 0.5217391304347826
vt 0.08333333333333333 0.5217391304347826
vt 0.08333333333333333 0.04347826086956519
vt 0.16666666666666666 0.04347826086956519
vt 0.16666666666666666 0
vt 0.08333333333333333 0
vt 0.08333333333333333 0.04347826086956519
vt 0.16666666666666666 0.04347826086956519
vt 0.16666666666666666 0
vt 0.08333333333333333 0
vt 0.08333333333333333 0.04347826086956519
vt 0.16666666666666666 0.04347826086956519
vt 0.16666666666666666 0
vt 0.08333333333333333 0
vt 0.08333333333333333 0.5652173913043479
vt 0.16666666666666666 0.5652173913043479
vt 0.16666666666666666 0.5217391304347826
vt 0.08333333333333333 0.5217391304347826
vt 0.08333333333333333 0.04347826086956519
vt 0.16666666666666666 0.04347826086956519
vt 0.16666666666666666 0
vt 0.08333333333333333 0
vn 0 0 -1
vn 1 0 0
vn 0 0 1
vn -1 0 0
vn 0 1 0
vn 0 -1 0
usemtl m_44910a6a-4d3d-268e-25dc-968fda112e67
f 4/4/1 7/3/1 5/2/1 2/1/1
f 3/8/2 4/7/2 2/6/2 1/5/2
f 8/12/3 3/11/3 1/10/3 6/9/3
f 7/16/4 8/15/4 6/14/4 5/13/4
f 6/20/5 1/19/5 2/18/5 5/17/5
f 7/24/6 4/23/6 3/22/6 8/21/6
o cube
v 0.313125 0 0
v 0.313125 0 -0.0625
v 0.313125 -0.0625 0
v 0.313125 -0.0625 -0.0625
v 0.25 0 -0.0625
v 0.25 0 0
v 0.25 -0.0625 -0.0625
v 0.25 -0.0625 0
vt 0.8333333333333334 0.5652173913043479
vt 0.9166666666666666 0.5652173913043479
vt 0.9166666666666666 0.5217391304347826
vt 0.8333333333333334 0.5217391304347826
vt 0.8333333333333334 0.04347826086956519
vt 0.9166666666666666 0.04347826086956519
vt 0.9166666666666666 0
vt 0.8333333333333334 0
vt 0.8333333333333334 0.04347826086956519
vt 0.9166666666666666 0.04347826086956519
vt 0.9166666666666666 0
vt 0.8333333333333334 0
vt 0.8333333333333334 0.04347826086956519
vt 0.9166666666666666 0.04347826086956519
vt 0.9166666666666666 0
vt 0.8333333333333334 0
vt 0.8333333333333334 0.5652173913043479
vt 0.9166666666666666 0.5652173913043479
vt 0.9166666666666666 0.5217391304347826
vt 0.8333333333333334 0.5217391304347826
vt 0.8333333333333334 0.04347826086956519
vt 0.9166666666666666 0.04347826086956519
vt 0.9166666666666666 0
vt 0.8333333333333334 0
vn 0 0 -1
vn 1 0 0
vn 0 0 1
vn -1 0 0
vn 0 1 0
vn 0 -1 0
usemtl m_44910a6a-4d3d-268e-25dc-968fda112e67
f 12/28/7 15/27/7 13/26/7 10/25/7
f 11/32/8 12/31/8 10/30/8 9/29/8
f 16/36/9 11/35/9 9/34/9 14/33/9
f 15/40/10 16/39/10 14/38/10 13/37/10
f 14/44/11 9/43/11 10/42/11 13/41/11
f 15/48/12 12/47/12 11/46/12 16/45/12
o cube
v -0.125 0.5508232998977831 0.2029679608384557
v -0.125 0.5950174737219422 0.15877378701429645
v -0.125 0.506629126073624 0.15877378701429645
v -0.125 0.5508232998977831 0.11457961319013726
v -0.25 0.5950174737219422 0.15877378701429645
v -0.25 0.5508232998977831 0.2029679608384557
v -0.25 0.5508232998977831 0.11457961319013726
v -0.25 0.506629126073624 0.15877378701429645
vt 0.16666666666666666 1
vt 0.3333333333333333 1
vt 0.3333333333333333 0.9565217391304348
vt 0.16666666666666666 0.9565217391304348
vt 0.25 0.4782608695652174
vt 0.3333333333333333 0.4782608695652174
vt 0.3333333333333333 0.4347826086956522
vt 0.25 0.4347826086956522
vt 0.16666666666666666 0.4782608695652174
vt 0.3333333333333333 0.4782608695652174
vt 0.3333333333333333 0.4347826086956522
vt 0.16666666666666666 0.4347826086956522
vt 0.16666666666666666 0.4782608695652174
vt 0.25 0.4782608695652174
vt 0.25 0.4347826086956522
vt 0.16666666666666666 0.4347826086956522
vt 0.16666666666666666 1
vt 0.3333333333333333 1
vt 0.3333333333333333 0.9565217391304348
vt 0.16666666666666666 0.9565217391304348
vt 0.16666666666666666 0.4782608695652174
vt 0.3333333333333333 0.4782608695652174
vt 0.3333333333333333 0.4347826086956522
vt 0.16666666666666666 0.4347826086956522
vn 0 0.7071067811865476 -0.7071067811865475
vn 1 0 0
vn 0 -0.7071067811865476 0.7071067811865475
vn -1 0 0
vn 0 0.7071067811865475 0.7071067811865476
vn 0 -0.7071067811865475 -0.7071067811865476
usemtl m_44910a6a-4d3d-268e-25dc-968fda112e67
f 20/52/13 23/51/13 21/50/13 18/49/13
f 19/56/14 20/55/14 18/54/14 17/53/14
f 24/60/15 19/59/15 17/58/15 22/57/15
f 23/64/16 24/63/16 22/62/16 21/61/16
f 22/68/17 17/67/17 18/66/17 21/65/17
f 23/72/18 20/71/18 19/70/18 24/69/18
o cube
v -0.06312499999999999 0.5066291260736239 0.1587737870142965
v -0.06312499999999999 0.5508232998977831 0.11457961319013729
v -0.06312499999999999 0.329852430776987 -0.01800290828234038
v -0.06312499999999999 0.37404660460114625 -0.0621970821064996
v -0.311875 0.5508232998977831 0.11457961319013729
v -0.311875 0.5066291260736239 0.1587737870142965
v -0.311875 0.37404660460114625 -0.0621970821064996
v -0.311875 0.329852430776987 -0.01800290828234038
vt 0.08333333333333333 0.9565217391304348
vt 0.4166666666666667 0.9565217391304348
vt 0.4166666666666667 0.782608695652174
vt 0.08333333333333333 0.782608695652174
vt 0.3333333333333333 0.4347826086956522
vt 0.4166666666666667 0.4347826086956522
vt 0.4166666666666667 0.26086956521739135
vt 0.3333333333333333 0.26086956521739135
vt 0.08333333333333333 0.4347826086956522
vt 0.4166666666666667 0.4347826086956522
vt 0.4166666666666667 0.26086956521739135
vt 0.08333333333333333 0.26086956521739135
vt 0.08333333333333333 0.4347826086956522
vt 0.16666666666666666 0.4347826086956522
vt 0.16666666666666666 0.26086956521739135
vt 0.08333333333333333 0.26086956521739135
vt 0.08333333333333333 0.9565217391304348
vt 0.4166666666666667 0.9565217391304348
vt 0.4166666666666667 0.9130434782608696
vt 0.08333333333333333 0.9130434782608696
vt 0.08333333333333333 0.30434782608695654
vt 0.4166666666666667 0.30434782608695654
vt 0.4166666666666667 0.26086956521739135
vt 0.08333333333333333 0.26086956521739135
vn 0 0.7071067811865476 -0.7071067811865475
vn 1 0 0
vn 0 -0.7071067811865476 0.7071067811865475
vn -1 0 0
vn 0 0.7071067811865475 0.7071067811865476
vn 0 -0.7071067811865475 -0.7071067811865476
usemtl m_44910a6a-4d3d-268e-25dc-968fda112e67
f 28/76/19 31/75/19 29/74/19 26/73/19
f 27/80/20 28/79/20 26/78/20 25/77/20
f 32/84/21 27/83/21 25/82/21 30/81/21
f 31/88/22 32/87/22 30/86/22 29/85/22
f 30/92/23 25/91/23 26/90/23 29/89/23
f 31/96/24 28/95/24 27/94/24 32/93/24
o cube
v -0.0625 0.375 0
v -0.0625 0.375 -0.0625
v -0.0625 0 0
v -0.0625 0 -0.0625
v -0.3125 0.375 -0.0625
v -0.3125 0.375 0
v -0.3125 0 -0.0625
v -0.3125 0 0
vt 0.08333333333333333 0.8260869565217391
vt 0.4166666666666667 0.8260869565217391
vt 0.4166666666666667 0.5652173913043479
vt 0.08333333333333333 0.5652173913043479
vt 0.3333333333333333 0.30434782608695654
vt 0.4166666666666667 0.30434782608695654
vt 0.4166666666666667 0.04347826086956519
vt 0.3333333333333333 0.04347826086956519
vt 0.08333333333333333 0.30434782608695654
vt 0.4166666666666667 0.30434782608695654
vt 0.4166666666666667 0.04347826086956519
vt 0.08333333333333333 0.04347826086956519
vt 0.08333333333333333 0.30434782608695654
vt 0.16666666666666666 0.30434782608695654
vt 0.16666666666666666 0.04347826086956519
vt 0.08333333333333333 0.04347826086956519
vt 0.08333333333333333 0.8260869565217391
vt 0.4166666666666667 0.8260869565217391
vt 0.4166666666666667 0.782608695652174
vt 0.08333333333333333 0.782608695652174
vt 0.08333333333333333 0.08695652173913049
vt 0.4166666666666667 0.08695652173913049
vt 0.4166666666666667 0.04347826086956519
vt 0.08333333333333333 0.04347826086956519
vn 0 0 -1
vn 1 0 0
vn 0 0 1
vn -1 0 0
vn 0 1 0
vn 0 -1 0
usemtl m_44910a6a-4d3d-268e-25dc-968fda112e67
f 36/100/25 39/99/25 37/98/25 34/97/25
f 35/104/26 36/103/26 34/102/26 33/101/26
f 40/108/27 35/107/27 33/106/27 38/105/27
f 39/112/28 40/111/28 38/110/28 37/109/28
f 38/116/29 33/115/29 34/114/29 37/113/29
f 39/120/30 36/119/30 35/118/30 40/117/30
o cube
v 0.3125 0.3433022660995353 0.09522280302492638
v 0.3125 0.35947845641844284 0.0348524388818596
v 0.3125 -0.0189199187588654 -0.00183433888851892
v 0.3125 -0.0027437284399578522 -0.06220470303158569
v 0.0625 0.35947845641844284 0.0348524388818596
v 0.0625 0.3433022660995353 0.09522280302492638
v 0.0625 -0.0027437284399578522 -0.06220470303158569
v 0.0625 -0.0189199187588654 -0.00183433888851892
vt 0.08333333333333333 0.8260869565217391
vt 0.4166666666666667 0.8260869565217391
vt 0.4166666666666667 0.5652173913043479
vt 0.08333333333333333 0.5652173913043479
vt 0.3333333333333333 0.30434782608695654
vt 0.4166666666666667 0.30434782608695654
vt 0.4166666666666667 0.04347826086956519
vt 0.3333333333333333 0.04347826086956519
vt 0.08333333333333333 0.30434782608695654
vt 0.4166666666666667 0.30434782608695654
vt 0.4166666666666667 0.04347826086956519
vt 0.08333333333333333 0.04347826086956519
vt 0.08333333333333333 0.30434782608695654
vt 0.16666666666666666 0.30434782608695654
vt 0.16666666666666666 0.04347826086956519
vt 0.08333333333333333 0.04347826086956519
vt 0.08333333333333333 0.8260869565217391
vt 0.4166666666666667 0.8260869565217391
vt 0.4166666666666667 0.782608695652174
vt 0.08333333333333333 0.782608695652174
vt 0.08333333333333333 0.08695652173913049
vt 0.4166666666666667 0.08695652173913049
vt 0.4166666666666667 0.04347826086956519
vt 0.08333333333333333 0.04347826086956519
vn 0 0.25881904510252074 -0.9659258262890683
vn 1 0 0
vn 0 -0.25881904510252074 0.9659258262890683
vn -1 0 0
vn 0 0.9659258262890683 0.25881904510252074
vn 0 -0.9659258262890683 -0.25881904510252074
usemtl m_44910a6a-4d3d-268e-25dc-968fda112e67
f 44/124/31 47/123/31 45/122/31 42/121/31
f 43/128/32 44/127/32 42/126/32 41/125/32
f 48/132/33 43/131/33 41/130/33 46/129/33
f 47/136/34 48/135/34 46/134/34 45/133/34
f 46/140/35 41/139/35 42/138/35 45/137/35
f 47/144/36 44/143/36 43/142/36 48/141/36
o cube
v 0.25 0.15579447927604867 0.34943631283199633
v 0.25 0.2124387159658393 0.37584995419079004
v 0.25 0.1822081206348424 0.2927920761422057
v 0.25 0.23885235732463306 0.3192057175009994
v 0.125 0.2124387159658393 0.37584995419079004
v 0.125 0.15579447927604867 0.34943631283199633
v 0.125 0.23885235732463306 0.3192057175009994
v 0.125 0.1822081206348424 0.2927920761422057
vt 0.16666666666666666 1
vt 0.3333333333333333 1
vt 0.3333333333333333 0.9565217391304348
vt 0.16666666666666666 0.9565217391304348
vt 0.25 0.4782608695652174
vt 0.3333333333333333 0.4782608695652174
vt 0.3333333333333333 0.4347826086956522
vt 0.25 0.4347826086956522
vt 0.16666666666666666 0.4782608695652174
vt 0.3333333333333333 0.4782608695652174
vt 0.3333333333333333 0.4347826086956522
vt 0.16666666666666666 0.4347826086956522
vt 0.16666666666666666 0.4782608695652174
vt 0.25 0.4782608695652174
vt 0.25 0.4347826086956522
vt 0.16666666666666666 0.4347826086956522
vt 0.16666666666666666 1
vt 0.3333333333333333 1
vt 0.3333333333333333 0.9565217391304348
vt 0.16666666666666666 0.9565217391304348
vt 0.16666666666666666 0.4782608695652174
vt 0.3333333333333333 0.4782608695652174
vt 0.3333333333333333 0.4347826086956522
vt 0.16666666666666666 0.4347826086956522
vn 0 0.90630778703665 0.4226182617406995
vn 1 0 0
vn 0 -0.90630778703665 -0.4226182617406995
vn -1 0 0
vn 0 -0.4226182617406995 0.90630778703665
vn 0 0.4226182617406995 -0.90630778703665
usemtl m_44910a6a-4d3d-268e-25dc-968fda112e67
f 52/148/37 55/147/37 53/146/37 50/145/37
f 51/152/38 52/151/38 50/150/38 49/149/38
f 56/156/39 51/155/39 49/154/39 54/153/39
f 55/160/40 56/159/40 54/158/40 53/157/40
f 54/164/41 49/163/41 50/162/41 53/161/41
f 55/168/42 52/167/42 51/166/42 56/165/42
o cube
v 0.311875 0.1822081206348424 0.2927920761422057
v 0.311875 0.23885235732463303 0.3192057175009994
v 0.311875 0.28786268607001725 0.06621512938304315
v 0.311875 0.3445069227598079 0.09262877074183687
v 0.06312499999999999 0.23885235732463303 0.3192057175009994
v 0.06312499999999999 0.1822081206348424 0.2927920761422057
v 0.06312499999999999 0.3445069227598079 0.09262877074183687
v 0.06312499999999999 0.28786268607001725 0.06621512938304315
vt 0.08333333333333333 0.9565217391304348
vt 0.4166666666666667 0.9565217391304348
vt 0.4166666666666667 0.782608695652174
vt 0.08333333333333333 0.782608695652174
vt 0.3333333333333333 0.4347826086956522
vt 0.4166666666666667 0.4347826086956522
vt 0.4166666666666667 0.26086956521739135
vt 0.3333333333333333 0.26086956521739135
vt 0.08333333333333333 0.4347826086956522
vt 0.4166666666666667 0.4347826086956522
vt 0.4166666666666667 0.26086956521739135
vt 0.08333333333333333 0.26086956521739135
vt 0.08333333333333333 0.4347826086956522
vt 0.16666666666666666 0.4347826086956522
vt 0.16666666666666666 0.26086956521739135
vt 0.08333333333333333 0.26086956521739135
vt 0.08333333333333333 0.9565217391304348
vt 0.4166666666666667 0.9565217391304348
vt 0.4166666666666667 0.9130434782608696
vt 0.08333333333333333 0.9130434782608696
vt 0.08333333333333333 0.6086956521739131
vt 0.4166666666666667 0.6086956521739131
vt 0.4166666666666667 0.5652173913043479
vt 0.08333333333333333 0.5652173913043479
vn 0 0.90630778703665 0.4226182617406995
vn 1 0 0
vn 0 -0.90630778703665 -0.4226182617406995
vn -1 0 0
vn 0 -0.4226182617406995 0.90630778703665
vn 0 0.4226182617406995 -0.90630778703665
usemtl m_44910a6a-4d3d-268e-25dc-968fda112e67
f 60/172/43 63/171/43 61/170/43 58/169/43
f 59/176/44 60/175/44 58/174/44 57/173/44
f 64/180/45 59/179/45 57/178/45 62/177/45
f 63/184/46 64/183/46 62/182/46 61/181/46
f 62/188/47 57/187/47 58/186/47 61/185/47
f 63/192/48 60/191/48 59/190/48 64/189/48