# Made in Blockbench 5.0.7
mtllib scarf.mtl

o mesh
v 0.25 0.3125 -0.25
v 0.25 0.3125 0.25
v 0.25 0.0625 0.25
v 0.25 0.0625 -0.25
v -0.25 0.0625 0.25
v -0.25 0.3125 0.25
v -0.25 0.3125 -0.25
v -0.25 0.0625 -0.25
vt 0.75 0.6666666666666667
vt 0.5 0.6666666666666667
vt 0.5 0.5
vt 0.75 0.5
vt 0.25 0.5
vt 0.25 0.6666666666666667
vt 0 0.6666666666666667
vt 0 0.5
vt 0.25 0.6666666666666667
vt 0.5 0.6666666666666667
vt 0.5 1
vt 0.25 1
vt 0.75 0.6666666666666667
vt 0.75 1
vt 0.5 1
vt 0.5 0.6666666666666667
vt 0.5 0.5
vt 0.5 0.6666666666666667
vt 0.25 0.6666666666666667
vt 0.25 0.5
vt 1 0.6666666666666667
vt 0.75 0.6666666666666667
vt 0.75 0.5
vt 1 0.5
vn 1 0 0
vn -1 0 0
vn 0 1 0
vn 0 -1 0
vn 0 0 1
vn 0 0 -1
usemtl m_306ac60c-133f-faf3-8cc1-052eb2938219
f 1/1/1 2/2/1 3/3/1 4/4/1
f 5/5/2 6/6/2 7/7/2 8/8/2
f 6/9/3 2/10/3 1/11/3 7/12/3
f 4/13/4 3/14/4 5/15/4 8/16/4
f 3/17/5 2/18/5 6/19/5 5/20/5
f 7/21/6 1/22/6 4/23/6 8/24/6
o mesh
v 0.1875 0.0625 0.1875
v 0.1875 0.0625 0.125
v 0.1875 -0.4375 0.1875
v 0.1875 -0.4375 0.125
v -0.0625 0.0625 0.1875
v -0.0625 0.0625 0.125
v -0.0625 -0.4375 0.1875
v -0.0625 -0.4375 0.125
vt 0.1875 0.45833333333333337
vt 0.15625 0.45833333333333337
vt 0.15625 0.125
vt 0.1875 0.125
vt 0.03125 0.125
vt 0.03125 0.45833333333333337
vt 0 0.45833333333333337
vt 0 0.125
vt 0.03125 0.45833333333333337
vt 0.15625 0.45833333333333337
vt 0.15625 0.5
vt 0.03125 0.5
vt 0.3125 0.08333333333333337
vt 0.3125 0.125
vt 0.1875 0.125
vt 0.1875 0.08333333333333337
vt 0.15625 0.125
vt 0.15625 0.45833333333333337
vt 0.03125 0.45833333333333337
vt 0.03125 0.125
vt 0.3125 0.45833333333333337
vt 0.1875 0.45833333333333337
vt 0.1875 0.125
vt 0.3125 0.125
vn 1 0 0
vn -1 0 0
vn 0 1 0
vn 0 -1 0
vn 0 0 1
vn 0 0 -1
usemtl m_306ac60c-133f-faf3-8cc1-052eb2938219
f 10/25/7 9/26/7 11/27/7 12/28/7
f 15/29/8 13/30/8 14/31/8 16/32/8
f 13/33/9 9/34/9 10/35/9 14/36/9
f 12/37/10 11/38/10 15/39/10 16/40/10
f 11/41/11 9/42/11 13/43/11 15/44/11
f 14/45/12 10/46/12 12/47/12 16/48/12
o mesh
v 0.0625 0.0625 -0.125
v 0.0625 0.0625 -0.1875
v 0.0625 -0.4375 -0.125
v 0.0625 -0.4375 -0.1875
v -0.1875 0.0625 -0.125
v -0.1875 0.0625 -0.1875
v -0.1875 -0.4375 -0.125
v -0.1875 -0.4375 -0.1875
vt 0.875 0.45833333333333337
vt 0.84375 0.45833333333333337
vt 0.84375 0.125
vt 0.875 0.125
vt 0.71875 0.125
vt 0.71875 0.45833333333333337
vt 0.6875 0.45833333333333337
vt 0.6875 0.125
vt 0.71875 0.45833333333333337
vt 0.84375 0.45833333333333337
vt 0.84375 0.5
vt 0.71875 0.5
vt 1 0.08333333333333337
vt 1 0.125
vt 0.875 0.125
vt 0.875 0.08333333333333337
vt 0.84375 0.125
vt 0.84375 0.45833333333333337
vt 0.71875 0.45833333333333337
vt 0.71875 0.125
vt 1 0.45833333333333337
vt 0.875 0.45833333333333337
vt 0.875 0.125
vt 1 0.125
vn 1 0 0
vn -1 0 0
vn 0 1 0
vn 0 -1 0
vn 0 0 1
vn 0 0 -1
usemtl m_306ac60c-133f-faf3-8cc1-052eb2938219
f 18/49/13 17/50/13 19/51/13 20/52/13
f 23/53/14 21/54/14 22/55/14 24/56/14
f 21/57/15 17/58/15 18/59/15 22/60/15
f 20/61/16 19/62/16 23/63/16 24/64/16
f 19/65/17 17/66/17 21/67/17 23/68/17
f 22/69/18 18/70/18 20/71/18 24/72/18