# Made in Blockbench 5.0.7
mtllib helmet_2.mtl

o mesh
v 0.25 0.4375 -0.25
v 0.25 0.4375 0.25
v 0.25 -0.0625 0.25
v 0.25 -0.0625 -0.25
v -0.25 -0.0625 0.25
v -0.25 0.4375 0.25
v -0.25 0.4375 -0.25
v -0.25 -0.0625 -0.25
vt 0.75 0.25
vt 0.5 0.25
vt 0.5 0
vt 0.75 0
vt 0.25 0
vt 0.25 0.25
vt 0 0.25
vt 0 0
vt 0.25 0.25
vt 0.5 0.25
vt 0.5 0.5
vt 0.25 0.5
vt 0.75 0.25
vt 0.75 0.5
vt 0.5 0.5
vt 0.5 0.25
vt 0.5 0
vt 0.5 0.25
vt 0.25 0.25
vt 0.25 0
vt 1 0.25
vt 0.75 0.25
vt 0.75 0
vt 1 0
vn 1 0 0
vn -1 0 0
vn 0 1 0
vn 0 -1 0
vn 0 0 1
vn 0 0 -1
usemtl m_db193dbd-bfd1-db44-ccb2-27dd7e838390
f 1/1/1 2/2/1 3/3/1 4/4/1
f 5/5/2 6/6/2 7/7/2 8/8/2
f 6/9/3 2/10/3 1/11/3 7/12/3
f 4/13/4 3/14/4 5/15/4 8/16/4
f 3/17/5 2/18/5 6/19/5 5/20/5
f 7/21/6 1/22/6 4/23/6 8/24/6
o mesh
v 0.275 0.4625 -0.275
v 0.275 0.4625 0.275
v 0.275 -0.0875 0.275
v 0.275 -0.0875 -0.275
v -0.275 -0.0875 0.275
v -0.275 0.4625 0.275
v -0.275 0.4625 -0.275
v -0.275 -0.0875 -0.275
vt 0.75 0.75
vt 0.5 0.75
vt 0.5 0.5
vt 0.75 0.5
vt 0.25 0.5
vt 0.25 0.75
vt 0 0.75
vt 0 0.5
vt 0.25 0.75
vt 0.5 0.75
vt 0.5 1
vt 0.25 1
vt 0.75 0.75
vt 0.75 1
vt 0.5 1
vt 0.5 0.75
vt 0.5 0.5
vt 0.5 0.75
vt 0.25 0.75
vt 0.25 0.5
vt 1 0.75
vt 0.75 0.75
vt 0.75 0.5
vt 1 0.5
vn 1 0 0
vn -1 0 0
vn 0 1 0
vn 0 -1 0
vn 0 0 1
vn 0 0 -1
usemtl m_db193dbd-bfd1-db44-ccb2-27dd7e838390
f 9/25/7 10/26/7 11/27/7 12/28/7
f 13/29/8 14/30/8 15/31/8 16/32/8
f 14/33/9 10/34/9 9/35/9 15/36/9
f 12/37/10 11/38/10 13/39/10 16/40/10
f 11/41/11 10/42/11 14/43/11 13/44/11
f 15/45/12 9/46/12 12/47/12 16/48/12
o mesh
v 0.125 0.5625 -0.375
v 0.125 0.5625 -0.125
v 0.125 0.3125 -0.125
v 0.125 0.3125 -0.375
v -0.125 0.3125 -0.125
v -0.125 0.5625 -0.125
v -0.125 0.5625 -0.375
v -0.125 0.3125 -0.375
vt 0.875 1
vt 0.75 1
vt 0.75 0.875
vt 0.875 0.875
vt 0.875 0.875
vt 0.875 1
vt 0.75 1
vt 0.75 0.875
vt 0.75 0.875
vt 0.875 0.875
vt 0.875 1
vt 0.75 1
vt 0.875 0.875
vt 0.875 1
vt 0.75 1
vt 0.75 0.875
vt 0.875 0.875
vt 0.875 1
vt 0.75 1
vt 0.75 0.875
vt 0.875 1
vt 0.75 1
vt 0.75 0.875
vt 0.875 0.875
vn 1 0 0
vn -1 0 0
vn 0 1 0
vn 0 -1 0
vn 0 0 1
vn 0 0 -1
usemtl m_db193dbd-bfd1-db44-ccb2-27dd7e838390
f 17/49/13 18/50/13 19/51/13 20/52/13
f 21/53/14 22/54/14 23/55/14 24/56/14
f 22/57/15 18/58/15 17/59/15 23/60/15
f 20/61/16 19/62/16 21/63/16 24/64/16
f 19/65/17 18/66/17 22/67/17 21/68/17
f 23/69/18 17/70/18 20/71/18 24/72/18