# Made in Blockbench 5.0.7
mtllib hermes_boot.mtl

o mesh
v 0.125 0.1875 0.125
v 0.125 0.1875 -0.125
v 0.125 -0.125 0.125
v 0.125 -0.125 -0.125
v -0.125 0.1875 0.125
v -0.125 0.1875 -0.125
v -0.125 -0.125 0.125
v -0.125 -0.125 -0.125
vt 0.5 0.75
vt 0.3333333333333333 0.75
vt 0.3333333333333333 0.4375
vt 0.5 0.4375
vt 0.16666666666666666 0.4375
vt 0.16666666666666666 0.75
vt 0 0.75
vt 0 0.4375
vt 0.16666666666666666 0.75
vt 0.3333333333333333 0.75
vt 0.3333333333333333 1
vt 0.16666666666666666 1
vt 0.5 1
vt 0.5 0.75
vt 0.3333333333333333 0.75
vt 0.3333333333333333 1
vt 0.3333333333333333 0.4375
vt 0.3333333333333333 0.75
vt 0.16666666666666666 0.75
vt 0.16666666666666666 0.4375
vt 0.6666666666666666 0.75
vt 0.5 0.75
vt 0.5 0.4375
vt 0.6666666666666666 0.4375
vn 1 0 0
vn -1 0 0
vn 0 1 0
vn 0 -1 0
vn 0 0 1
vn 0 0 -1
usemtl m_b058f444-a2d5-3807-469d-a77c72d3671f
f 2/1/1 1/2/1 3/3/1 4/4/1
f 7/5/2 5/6/2 6/7/2 8/8/2
f 5/9/3 1/10/3 2/11/3 6/12/3
f 4/13/4 3/14/4 7/15/4 8/16/4
f 3/17/5 1/18/5 5/19/5 7/20/5
f 6/21/6 2/22/6 4/23/6 8/24/6
o mesh
v 0.125 0 0.25
v 0.125 0 0.125
v 0.125 -0.125 0.25
v 0.125 -0.125 0.125
v -0.125 0 0.25
v -0.125 0 0.125
v -0.125 -0.125 0.25
v -0.125 -0.125 0.125
vt 0.4583333333333333 0.125
vt 0.375 0.125
vt 0.375 0
vt 0.4583333333333333 0
vt 0.125 0
vt 0.125 0.125
vt 0.041666666666666664 0.125
vt 0.041666666666666664 0
vt 0.16666666666666666 0.25
vt 0.3333333333333333 0.25
vt 0.3333333333333333 0.375
vt 0.16666666666666666 0.375
vt 0.5 0.375
vt 0.5 0.25
vt 0.3333333333333333 0.25
vt 0.3333333333333333 0.375
vt 0.3333333333333333 0
vt 0.3333333333333333 0.125
vt 0.16666666666666666 0.125
vt 0.16666666666666666 0
vt 0.6666666666666666 0.125
vt 0.5 0.125
vt 0.5 0
vt 0.6666666666666666 0
vn 1 0 0
vn -1 0 0
vn 0 1 0
vn 0 -1 0
vn 0 0 1
vn 0 0 -1
usemtl m_b058f444-a2d5-3807-469d-a77c72d3671f
f 10/25/7 9/26/7 11/27/7 12/28/7
f 15/29/8 13/30/8 14/31/8 16/32/8
f 13/33/9 9/34/9 10/35/9 14/36/9
f 12/37/10 11/38/10 15/39/10 16/40/10
f 11/41/11 9/42/11 13/43/11 15/44/11
f 14/45/12 10/46/12 12/47/12 16/48/12
o plane
v -0.13124999999999995 -0.12499999999999994 0.06250000000000006
v -0.13124999999999995 0.37500000000000006 0.062499999999999944
v -0.13125000000000006 -0.12500000000000006 -0.43749999999999994
v -0.13125000000000006 0.37499999999999994 -0.43750000000000006
vt 1 0
vt 1 0.5
vt 0.6666666666666666 0.5
vt 0.6666666666666666 0
vn -1 4.930380657631324e-32 2.220446049250313e-16
usemtl m_b058f444-a2d5-3807-469d-a77c72d3671f
f 17/49/13 18/50/13 20/51/13 19/52/13
o plane
v 0.13125000000000006 -0.12499999999999994 0.06250000000000006
v 0.13125000000000006 0.37500000000000006 0.062499999999999944
v 0.13124999999999995 -0.12500000000000006 -0.43749999999999994
v 0.13124999999999995 0.37499999999999994 -0.43750000000000006
vt 1 0.5
vt 1 1
vt 0.6666666666666666 1
vt 0.6666666666666666 0.5
vn -1 4.930380657631324e-32 2.220446049250313e-16
usemtl m_b058f444-a2d5-3807-469d-a77c72d3671f
f 21/53/14 22/54/14 24/55/14 23/56/14