# Made in Blockbench 5.0.7
mtllib simple_body.mtl

o mesh
v 0.25 0.5625 -0.125
v 0.25 0.5625 0.125
v 0.25 -0.1875 0.125
v 0.25 -0.1875 -0.125
v -0.25 -0.1875 0.125
v -0.25 0.5625 0.125
v -0.25 0.5625 -0.125
v -0.25 -0.1875 -0.125
vt 0.6666666666666666 0.75
vt 0.5 0.75
vt 0.5 0
vt 0.6666666666666666 0
vt 0.16666666666666666 0
vt 0.16666666666666666 0.75
vt 0 0.75
vt 0 0
vt 0.16666666666666666 0.75
vt 0.5 0.75
vt 0.5 1
vt 0.16666666666666666 1
vt 0.8333333333333334 0.75
vt 0.8333333333333334 1
vt 0.5 1
vt 0.5 0.75
vt 0.5 0
vt 0.5 0.75
vt 0.16666666666666666 0.75
vt 0.16666666666666666 0
vt 1 0.75
vt 0.6666666666666666 0.75
vt 0.6666666666666666 0
vt 1 0
vn 1 0 0
vn -1 0 0
vn 0 1 0
vn 0 -1 0
vn 0 0 1
vn 0 0 -1
usemtl m_ff3ed5d5-6a32-eff9-4f6a-6aa4377a94fb
f 1/1/1 2/2/1 3/3/1 4/4/1
f 5/5/2 6/6/2 7/7/2 8/8/2
f 6/9/3 2/10/3 1/11/3 7/12/3
f 4/13/4 3/14/4 5/15/4 8/16/4
f 3/17/5 2/18/5 6/19/5 5/20/5
f 7/21/6 1/22/6 4/23/6 8/24/6