# Made in Blockbench 5.0.7
mtllib simple_winged_helmet.mtl

o mesh
v 0.25 0.4375 -0.25
v 0.25 0.4375 0.25
v 0.25 -0.0625 0.25
v 0.25 -0.0625 -0.25
v -0.25 -0.0625 0.25
v -0.25 0.4375 0.25
v -0.25 0.4375 -0.25
v -0.25 -0.0625 -0.25
vt 0.75 0.5
vt 0.5 0.5
vt 0.5 0
vt 0.75 0
vt 0.25 0
vt 0.25 0.5
vt 0 0.5
vt 0 0
vt 0.25 0.5
vt 0.5 0.5
vt 0.5 1
vt 0.25 1
vt 0.75 0.5
vt 0.75 1
vt 0.5 1
vt 0.5 0.5
vt 0.5 0
vt 0.5 0.5
vt 0.25 0.5
vt 0.25 0
vt 1 0.5
vt 0.75 0.5
vt 0.75 0
vt 1 0
vn 1 0 0
vn -1 0 0
vn 0 1 0
vn 0 -1 0
vn 0 0 1
vn 0 0 -1
usemtl m_131c0b70-fcec-76d8-d779-6a1e1681323d
f 1/1/1 2/2/1 3/3/1 4/4/1
f 5/5/2 6/6/2 7/7/2 8/8/2
f 6/9/3 2/10/3 1/11/3 7/12/3
f 4/13/4 3/14/4 5/15/4 8/16/4
f 3/17/5 2/18/5 6/19/5 5/20/5
f 7/21/6 1/22/6 4/23/6 8/24/6
o plane
v 0.21682914190872762 0.6875 0.04346988312782171
v 0.4081708580912725 0.6875 -0.41846988312782163
v 0.2168291419087275 0.18750000000000003 0.04346988312782166
v 0.4081708580912724 0.18750000000000003 -0.41846988312782174
vt 0.9989237945361973 1
vt 0.7489329815227219 0.9957135521178385
vt 0.7510762054638027 0.49786596304544395
vt 1 0.5000183739730494
vn -0.9238795325112868 2.370072626263643e-16 -0.3826834323650897
usemtl m_131c0b70-fcec-76d8-d779-6a1e1681323d
f 9/25/7 10/26/7 12/27/7 11/28/7
o plane
v -0.2168291419087275 0.6875 0.04346988312782166
v -0.4081708580912724 0.6875 -0.41846988312782174
v -0.21682914190872762 0.18750000000000003 0.04346988312782171
v -0.4081708580912725 0.18750000000000003 -0.41846988312782163
vt 0.9989237945361973 1
vt 0.7489329815227219 0.9957135521178385
vt 0.7510762054638027 0.49786596304544395
vt 1 0.5000183739730494
vn -0.9238795325112868 2.370072626263643e-16 0.3826834323650897
usemtl m_131c0b70-fcec-76d8-d779-6a1e1681323d
f 13/29/8 14/30/8 16/31/8 15/32/8