# Made in Blockbench 5.0.7
mtllib spartan_helmet.mtl

o mesh
v 0.25 0.4375 -0.25
v 0.25 0.4375 0.25
v 0.25 -0.0625 0.25
v 0.25 -0.0625 -0.25
v -0.25 -0.0625 0.25
v -0.25 0.4375 0.25
v -0.25 0.4375 -0.25
v -0.25 -0.0625 -0.25
vt 0.75 0.19999999999999996
vt 0.5 0.19999999999999996
vt 0.5 0
vt 0.75 0
vt 0.25 0
vt 0.25 0.19999999999999996
vt 0 0.19999999999999996
vt 0 0
vt 0.25 0.19999999999999996
vt 0.5 0.19999999999999996
vt 0.5 0.4
vt 0.25 0.4
vt 0.75 0.19999999999999996
vt 0.75 0.4
vt 0.5 0.4
vt 0.5 0.19999999999999996
vt 0.5 0
vt 0.5 0.19999999999999996
vt 0.25 0.19999999999999996
vt 0.25 0
vt 1 0.19999999999999996
vt 0.75 0.19999999999999996
vt 0.75 0
vt 1 0
vn 1 0 0
vn -1 0 0
vn 0 1 0
vn 0 -1 0
vn 0 0 1
vn 0 0 -1
usemtl m_851e3350-4e25-2b9a-779f-107f00caf656
f 1/1/1 2/2/1 3/3/1 4/4/1
f 5/5/2 6/6/2 7/7/2 8/8/2
f 6/9/3 2/10/3 1/11/3 7/12/3
f 4/13/4 3/14/4 5/15/4 8/16/4
f 3/17/5 2/18/5 6/19/5 5/20/5
f 7/21/6 1/22/6 4/23/6 8/24/6
o mesh
v 0.125 0.5625 -0.375
v 0.125 0.5625 0.125
v 0.125 0.4375 0.125
v 0.125 0.4375 -0.375
v -0.125 0.4375 0.125
v -0.125 0.5625 0.125
v -0.125 0.5625 -0.375
v -0.125 0.4375 -0.375
vt 0.25 1
vt 0 1
vt 0 0.95
vt 0.25 0.95
vt 0 0.95
vt 0 1
vt 0.25 1
vt 0.25 0.95
vt 0.25 0.9
vt 0.25 0.8
vt 0.5 0.8
vt 0.5 0.9
vt 0.25 0.8
vt 0.5 0.8
vt 0.5 0.9
vt 0.25 0.9
vt 0.25 0.75
vt 0.25 0.8
vt 0.125 0.8
vt 0.125 0.75
vt 0.25 0.8
vt 0.125 0.8
vt 0.125 0.75
vt 0.25 0.75
vn 1 0 0
vn -1 0 0
vn 0 1 0
vn 0 -1 0
vn 0 0 1
vn 0 0 -1
usemtl m_851e3350-4e25-2b9a-779f-107f00caf656
f 9/25/7 10/26/7 11/27/7 12/28/7
f 13/29/8 14/30/8 15/31/8 16/32/8
f 14/33/9 10/34/9 9/35/9 15/36/9
f 12/37/10 11/38/10 13/39/10 16/40/10
f 11/41/11 10/42/11 14/43/11 13/44/11
f 15/45/12 9/46/12 12/47/12 16/48/12
o mesh
v 0.125 0.4375 -0.375
v 0.125 0.4375 -0.25
v 0.125 0.0625 -0.25
v 0.125 0.0625 -0.375
v -0.125 0.0625 -0.25
v -0.125 0.4375 -0.25
v -0.125 0.4375 -0.375
v -0.125 0.0625 -0.375
vt 0.25 0.95
vt 0.1875 0.95
vt 0.1875 0.8
vt 0.25 0.8
vt 0.1875 0.8
vt 0.1875 0.95
vt 0.25 0.95
vt 0.25 0.8
vt 0.25 0.9
vt 0.25 0.8
vt 0.5 0.8
vt 0.5 0.9
vt 0.125 0.6
vt 0.125 0.65
vt 0.25 0.65
vt 0.25 0.6
vt 0.25 0.75
vt 0.25 0.8
vt 0.125 0.8
vt 0.125 0.75
vt 0.25 0.75
vt 0.125 0.75
vt 0.125 0.6
vt 0.25 0.6
vn 1 0 0
vn -1 0 0
vn 0 1 0
vn 0 -1 0
vn 0 0 1
vn 0 0 -1
usemtl m_851e3350-4e25-2b9a-779f-107f00caf656
f 17/49/13 18/50/13 19/51/13 20/52/13
f 21/53/14 22/54/14 23/55/14 24/56/14
f 22/57/15 18/58/15 17/59/15 23/60/15
f 20/61/16 19/62/16 21/63/16 24/64/16
f 19/65/17 18/66/17 22/67/17 21/68/17
f 23/69/18 17/70/18 20/71/18 24/72/18
o mesh
v 0.09375 0.75 -0.625
v 0.09375 0.75 0.1875
v 0.09375 0.5625 0.1875
v 0.09375 0.5625 -0.625
v -0.09375 0.5625 0.1875
v -0.09375 0.75 0.1875
v -0.09375 0.75 -0.625
v -0.09375 0.5625 -0.625
vt 0.90625 0.9
vt 0.5 0.9
vt 0.5 0.825
vt 0.90625 0.825
vt 0.5 0.825
vt 0.5 0.9
vt 0.90625 0.9
vt 0.90625 0.825
vt 0.5 1
vt 0.5 0.925
vt 0.90625 0.925
vt 0.90625 1
vt 0.5 0.925
vt 0.90625 0.925
vt 0.90625 1
vt 0.5 1
vt 0.5 0.9
vt 0.5 0.975
vt 0.40625 0.975
vt 0.40625 0.9
vt 1 0.9
vt 0.90625 0.9
vt 0.90625 0.825
vt 1 0.825
vn 1 0 0
vn -1 0 0
vn 0 1 0
vn 0 -1 0
vn 0 0 1
vn 0 0 -1
usemtl m_851e3350-4e25-2b9a-779f-107f00caf656
f 25/73/19 26/74/19 27/75/19 28/76/19
f 29/77/20 30/78/20 31/79/20 32/80/20
f 30/81/21 26/82/21 25/83/21 31/84/21
f 28/85/22 27/86/22 29/87/22 32/88/22
f 27/89/23 26/90/23 30/91/23 29/92/23
f 31/93/24 25/94/24 28/95/24 32/96/24
o mesh
v 0.09375 0.5625 -0.625
v 0.09375 0.5625 -0.375
v 0.09375 0 -0.375
v 0.09375 0 -0.625
v -0.09375 0 -0.375
v -0.09375 0.5625 -0.375
v -0.09375 0.5625 -0.625
v -0.09375 0 -0.625
vt 0.90625 0.825
vt 0.78125 0.825
vt 0.78125 0.6
vt 0.90625 0.6
vt 0.78125 0.6
vt 0.78125 0.825
vt 0.90625 0.825
vt 0.90625 0.6
vt 0.40625 1
vt 0.40625 0.9
vt 0.5 0.9
vt 0.5 1
vt 0.40625 1
vt 0.40625 0.9
vt 0.5 0.9
vt 0.5 1
vt 1 0.6
vt 1 0.825
vt 0.90625 0.825
vt 0.90625 0.6
vt 1 0.825
vt 0.90625 0.825
vt 0.90625 0.6
vt 1 0.6
vn 1 0 0
vn -1 0 0
vn 0 1 0
vn 0 -1 0
vn 0 0 1
vn 0 0 -1
usemtl m_851e3350-4e25-2b9a-779f-107f00caf656
f 33/97/25 34/98/25 35/99/25 36/100/25
f 37/101/26 38/102/26 39/103/26 40/104/26
f 38/105/27 34/106/27 33/107/27 39/108/27
f 36/109/28 35/110/28 37/111/28 40/112/28
f 35/113/29 34/114/29 38/115/29 37/116/29
f 39/117/30 33/118/30 36/119/30 40/120/30
o mesh
v 0.09375 0.8125 -0.5625
v 0.09375 0.8125 0.1875
v 0.09375 0.75 0.1875
v 0.09375 0.75 -0.5625
v -0.09375 0.75 0.1875
v -0.09375 0.8125 0.1875
v -0.09375 0.8125 -0.5625
v -0.09375 0.75 -0.5625
vt 0.875 0.925
vt 0.5 0.925
vt 0.5 0.9
vt 0.875 0.9
vt 0.5 0.9
vt 0.5 0.925
vt 0.875 0.925
vt 0.875 0.9
vt 0.5 1
vt 0.5 0.925
vt 0.90625 0.925
vt 0.90625 1
vt 0.5 0.925
vt 0.90625 0.925
vt 0.90625 1
vt 0.5 1
vt 0.5 0.975
vt 0.5 1
vt 0.40625 1
vt 0.40625 0.975
vt 1 0.925
vt 0.90625 0.925
vt 0.90625 0.9
vt 1 0.9
vn 1 0 0
vn -1 0 0
vn 0 1 0
vn 0 -1 0
vn 0 0 1
vn 0 0 -1
usemtl m_851e3350-4e25-2b9a-779f-107f00caf656
f 41/121/31 42/122/31 43/123/31 44/124/31
f 45/125/32 46/126/32 47/127/32 48/128/32
f 46/129/33 42/130/33 41/131/33 47/132/33
f 44/133/34 43/134/34 45/135/34 48/136/34
f 43/137/35 42/138/35 46/139/35 45/140/35
f 47/141/36 41/142/36 44/143/36 48/144/36
o mesh
v 0.275 0.4625 -0.275
v 0.275 0.4625 0.275
v 0.275 -0.08750000000000002 0.275
v 0.275 -0.08750000000000002 -0.275
v -0.275 -0.08750000000000002 0.275
v -0.275 0.4625 0.275
v -0.275 0.4625 -0.275
v -0.275 -0.08750000000000002 -0.275
vt 0.75 0.6
vt 0.5 0.6
vt 0.5 0.4
vt 0.75 0.4
vt 0.25 0.4
vt 0.25 0.6
vt 0 0.6
vt 0 0.4
vt 0.25 0.6
vt 0.5 0.6
vt 0.5 0.8
vt 0.25 0.8
vt 0.75 0.6
vt 0.75 0.8
vt 0.5 0.8
vt 0.5 0.6
vt 0.5 0.4
vt 0.5 0.6
vt 0.25 0.6
vt 0.25 0.4
vt 1 0.6
vt 0.75 0.6
vt 0.75 0.4
vt 1 0.4
vn 1 0 0
vn -1 0 0
vn 0 1 0
vn 0 -1 0
vn 0 0 1
vn 0 0 -1
usemtl m_851e3350-4e25-2b9a-779f-107f00caf656
f 49/145/37 50/146/37 51/147/37 52/148/37
f 53/149/38 54/150/38 55/151/38 56/152/38
f 54/153/39 50/154/39 49/155/39 55/156/39
f 52/157/40 51/158/40 53/159/40 56/160/40
f 51/161/41 50/162/41 54/163/41 53/164/41
f 55/165/42 49/166/42 52/167/42 56/168/42